999
dxfrw 0.6.3
  0
SECTION
  2
HEADER
  9
$ACADVER
  1
AC1021
  9
$DWGCODEPAGE
  3
ANSI_1252
  9
$INSBASE
 10
0
 20
0
 30
0
  9
$EXTMIN
 10
-129.9038105676658
 20
-129.9038105676658
 30
0
  9
$EXTMAX
 10
129.9038105676658
 20
129.9038105676658
 30
0
  9
$LIMMIN
 10
0
 20
0
  9
$LIMMAX
 10
420
 20
297
  9
$ORTHOMODE
 70
    0
  9
$REGENMODE
 70
    1
  9
$FILLMODE
 70
    1
  9
$QTEXTMODE
 70
    0
  9
$MIRRTEXT
 70
    0
  9
$LTSCALE
 40
1
  9
$ATTMODE
 70
    0
  9
$TEXTSIZE
 40
2.5
  9
$TRACEWID
 40
15.68
  9
$TEXTSTYLE
  7
STANDARD
  9
$CLAYER
  8
0
  9
$CELTYPE
  6
BYLAYER
  9
$CECOLOR
 62
  256
  9
$CELTSCALE
 40
1
  9
$DISPSILH
 70
    0
  9
$DIMSCALE
 40
1
  9
$DIMASZ
 40
2.5
  9
$DIMEXO
 40
0.625
  9
$DIMDLI
 40
3.75
  9
$DIMRND
 40
0
  9
$DIMDLE
 40
0
  9
$DIMEXE
 40
1.25
  9
$DIMTP
 40
0
  9
$DIMTM
 40
0
  9
$DIMTXT
 40
2.5
  9
$DIMCEN
 40
2.5
  9
$DIMTSZ
 40
0
  9
$DIMTOL
 70
    0
  9
$DIMLIM
 70
    0
  9
$DIMTIH
 70
    0
  9
$DIMTOH
 70
    0
  9
$DIMSE1
 70
    0
  9
$DIMSE2
 70
    0
  9
$DIMTAD
 70
    1
  9
$DIMZIN
 70
    1
  9
$DIMBLK
  1

  9
$DIMASO
 70
    1
  9
$DIMSHO
 70
    1
  9
$DIMPOST
  1

  9
$DIMAPOST
  1

  9
$DIMALT
 70
    0
  9
$DIMALTD
 70
    3
  9
$DIMALTF
 40
0.03937
  9
$DIMLFAC
 40
1
  9
$DIMTOFL
 70
    1
  9
$DIMTVP
 40
0
  9
$DIMTIX
 70
    0
  9
$DIMSOXD
 70
    0
  9
$DIMSAH
 70
    0
  9
$DIMBLK1
  1

  9
$DIMBLK2
  1

  9
$DIMSTYLE
  2
STANDARD
  9
$DIMCLRD
 70
    0
  9
$DIMCLRE
 70
  176
  9
$DIMCLRT
 70
    0
  9
$DIMTFAC
 40
1
  9
$DIMGAP
 40
0.625
  9
$DIMJUST
 70
    0
  9
$DIMSD1
 70
    0
  9
$DIMSD2
 70
    0
  9
$DIMTOLJ
 70
    0
  9
$DIMTZIN
 70
    8
  9
$DIMALTZ
 70
    0
  9
$DIMALTTZ
 70
    0
  9
$DIMUPT
 70
    0
  9
$DIMDEC
 70
    4
  9
$DIMTDEC
 70
    2
  9
$DIMALTU
 70
    2
  9
$DIMALTTD
 70
    3
  9
$DIMTXSTY
  7
standard
  9
$DIMAUNIT
 70
    0
  9
$DIMADEC
 70
    2
  9
$DIMALTRND
 40
0
  9
$DIMAZIN
 70
    0
  9
$DIMDSEP
 70
    0
  9
$DIMATFIT
 70
    3
  9
$DIMFRAC
 70
    0
  9
$DIMLDRBLK
  1
STANDARD
  9
$DIMLUNIT
 70
    2
  9
$DIMLWD
 70
   -2
  9
$DIMLWE
 70
   -2
  9
$DIMTMOVE
 70
    0
  9
$DIMFXL
 40
1
  9
$DIMFXLON
 70
    0
  9
$DIMJOGANG
 40
0.7854
  9
$DIMTFILL
 70
    0
  9
$DIMTFILLCLR
 70
    0
  9
$DIMARCSYM
 70
    0
  9
$DIMLTYPE
  6

  9
$DIMLTEX1
  6

  9
$DIMLTEX2
  6

  9
$LUNITS
 70
    2
  9
$LUPREC
 70
    4
  9
$SKETCHINC
 40
1
  9
$FILLETRAD
 40
0
  9
$AUNITS
 70
    0
  9
$AUPREC
 70
    2
  9
$MENU
  1
.
  9
$ELEVATION
 40
0
  9
$PELEVATION
 40
0
  9
$THICKNESS
 40
0
  9
$LIMCHECK
 70
    0
  9
$CHAMFERA
 40
0
  9
$CHAMFERB
 40
0
  9
$CHAMFERC
 40
0
  9
$CHAMFERD
 40
0
  9
$SKPOLY
 70
    0
  9
$USRTIMER
 70
    1
  9
$ANGBASE
 50
0
  9
$ANGDIR
 70
    0
  9
$PDMODE
 70
   34
  9
$PDSIZE
 40
0
  9
$PLINEWID
 40
0
  9
$SPLFRAME
 70
    0
  9
$SPLINETYPE
 70
    2
  9
$SPLINESEGS
 70
    8
  9
$HANDSEED
  5
20000
  9
$SURFTAB1
 70
    6
  9
$SURFTAB2
 70
    6
  9
$SURFTYPE
 70
    6
  9
$SURFU
 70
    6
  9
$SURFV
 70
    6
  9
$UCSBASE
  2

  9
$UCSNAME
  2

  9
$UCSORG
 10
0
 20
0
 30
0
  9
$UCSXDIR
 10
1
 20
0
 30
0
  9
$UCSYDIR
 10
0
 20
1
 30
0
  9
$UCSORTHOREF
  2

  9
$UCSORTHOVIEW
 70
    0
  9
$UCSORGTOP
 10
0
 20
0
 30
0
  9
$UCSORGBOTTOM
 10
0
 20
0
 30
0
  9
$UCSORGLEFT
 10
0
 20
0
 30
0
  9
$UCSORGRIGHT
 10
0
 20
0
 30
0
  9
$UCSORGFRONT
 10
0
 20
0
 30
0
  9
$UCSORGBACK
 10
0
 20
0
 30
0
  9
$PUCSBASE
  2

  9
$PUCSNAME
  2

  9
$PUCSORG
 10
0
 20
0
 30
0
  9
$PUCSXDIR
 10
1
 20
0
 30
0
  9
$PUCSYDIR
 10
0
 20
1
 30
0
  9
$PUCSORTHOREF
  2

  9
$PUCSORTHOVIEW
 70
    0
  9
$PUCSORGTOP
 10
0
 20
0
 30
0
  9
$PUCSORGBOTTOM
 10
0
 20
0
 30
0
  9
$PUCSORGLEFT
 10
0
 20
0
 30
0
  9
$PUCSORGRIGHT
 10
0
 20
0
 30
0
  9
$PUCSORGFRONT
 10
0
 20
0
 30
0
  9
$PUCSORGBACK
 10
0
 20
0
 30
0
  9
$USERI1
 70
    0
  9
$USERI2
 70
    0
  9
$USERI3
 70
    0
  9
$USERI4
 70
    0
  9
$USERI5
 70
    0
  9
$USERR1
 40
0
  9
$USERR2
 40
0
  9
$USERR3
 40
0
  9
$USERR4
 40
0
  9
$USERR5
 40
0
  9
$WORLDVIEW
 70
    1
  9
$SHADEDGE
 70
    3
  9
$SHADEDIF
 70
   70
  9
$TILEMODE
 70
    1
  9
$MAXACTVP
 70
   64
  9
$PINSBASE
 10
0
 20
0
 30
0
  9
$PLIMCHECK
 70
    0
  9
$PEXTMIN
 10
0
 20
0
 30
0
  9
$PEXTMAX
 10
0
 20
0
 30
0
  9
$GRIDMODE
 70
    1
  9
$GRIDUNIT
 10
0
 20
0
  9
$PLIMMIN
 10
0
 20
0
  9
$PLIMMAX
 10
297
 20
210
  9
$UNITMODE
 70
    0
  9
$VISRETAIN
 70
    1
  9
$PLINEGEN
 70
    0
  9
$PSLTSCALE
 70
    1
  9
$TREEDEPTH
 70
 3020
  9
$CMLSTYLE
  2
Standard
  9
$CMLJUST
 70
    0
  9
$CMLSCALE
 40
20
  9
$PROXYGRAPHICS
 70
    1
  9
$MEASUREMENT
 70
    1
  9
$CELWEIGHT
370
   -1
  9
$ENDCAPS
280
    0
  9
$JOINSTYLE
280
    0
  9
$LWDISPLAY
290
    0
  9
$INSUNITS
 70
    4
  9
$HYPERLINKBASE
  1

  9
$STYLESHEET
  1

  9
$XEDIT
290
    1
  9
$CEPSNTYPE
380
    0
  9
$PSTYLEMODE
290
    1
  9
$EXTNAMES
290
    1
  9
$PSVPSCALE
 40
0
  9
$OLESTARTUP
290
    0
  9
$SORTENTS
280
  127
  9
$INDEXCTL
280
    0
  9
$HIDETEXT
280
    1
  9
$XCLIPFRAME
290
    0
  9
$HALOGAP
280
    0
  9
$OBSCOLOR
 70
  257
  9
$OBSLTYPE
280
    0
  9
$INTERSECTIONDISPLAY
280
    0
  9
$INTERSECTIONCOLOR
 70
  257
  9
$DIMASSOC
280
    1
  9
$PROJECTNAME
  1

  9
$CAMERADISPLAY
290
    0
  9
$LENSLENGTH
 40
50
  9
$CAMERAHEIGHT
 40
0
  9
$STEPSPERSEC
 40
2
  9
$STEPSIZE
 40
50
  9
$3DDWFPREC
 40
2
  9
$PSOLWIDTH
 40
5
  9
$PSOLHEIGHT
 40
80
  9
$LOFTANG1
 40
1.570796326794897
  9
$LOFTANG2
 40
1.570796326794897
  9
$LOFTMAG1
 40
0
  9
$LOFTMAG2
 40
0
  9
$LOFTPARAM
 70
    7
  9
$LOFTNORMALS
280
    1
  9
$LATITUDE
 40
1
  9
$LONGITUDE
 40
1
  9
$NORTHDIRECTION
 40
0
  9
$TIMEZONE
 70
-8000
  9
$LIGHTGLYPHDISPLAY
280
    1
  9
$TILEMODELIGHTSYNCH
280
    1
  9
$SOLIDHIST
280
    1
  9
$SHOWHIST
280
    1
  9
$DWFFRAME
280
    2
  9
$DGNFRAME
280
    0
  9
$REALWORLDSCALE
290
    1
  9
$INTERFERECOLOR
 62
    1
  9
$CSHADOW
280
    0
  9
$SHADOWPLANELOCATION
 40
0
  0
ENDSEC
  0
SECTION
  2
CLASSES
  0
ENDSEC
  0
SECTION
  2
TABLES
  0
TABLE
  2
VPORT
  5
8
330
0
100
AcDbSymbolTable
 70
    1
  0
VPORT
  5
31
330
2
100
AcDbSymbolTableRecord
100
AcDbViewportTableRecord
  2
*ACTIVE
 70
    0
 10
0
 20
0
 11
1
 21
1
 12
112.9893750001188
 22
58.41337500006141
 13
0
 23
0
 14
10
 24
10
 15
10
 25
10
 16
0
 26
0
 36
1
 17
0
 27
0
 37
0
 40
230.5267500002424
 41
1.955610357583231
 42
50
 43
0
 44
0
 50
0
 51
0
 71
    0
 72
  100
 73
    1
 74
    3
 75
    0
 76
    1
 77
    0
 78
    0
281
    0
 65
    1
110
0
120
0
130
0
111
1
121
0
131
0
112
0
122
1
132
0
 79
    0
146
0
348
10020
 60
    7
 61
    5
292
1
282
    1
141
0
142
0
 63
  250
421
3358443
  0
ENDTAB
  0
TABLE
  2
LTYPE
  5
5
330
0
100
AcDbSymbolTable
 70
    4
  0
LTYPE
  5
14
330
5
100
AcDbSymbolTableRecord
100
AcDbLinetypeTableRecord
  2
ByBlock
 70
    0
  3

 72
   65
 73
    0
 40
0
  0
LTYPE
  5
15
330
5
100
AcDbSymbolTableRecord
100
AcDbLinetypeTableRecord
  2
ByLayer
 70
    0
  3

 72
   65
 73
    0
 40
0
  0
LTYPE
  5
16
330
5
100
AcDbSymbolTableRecord
100
AcDbLinetypeTableRecord
  2
Continuous
 70
    0
  3
Solid line
 72
   65
 73
    0
 40
0
  0
LTYPE
  5
32
330
5
100
AcDbSymbolTableRecord
100
AcDbLinetypeTableRecord
  2
DOT
 70
    0
  3
Dot . . . . . . . . . . . . . . . . . . . . . .
 72
   65
 73
    2
 40
6.35
 49
0
 74
    0
 49
-6.35
 74
    0
  0
LTYPE
  5
33
330
5
100
AcDbSymbolTableRecord
100
AcDbLinetypeTableRecord
  2
DOTTINY
 70
    0
  3
Dot (.15x) .....................................
 72
   65
 73
    2
 40
0.9525
 49
0
 74
    0
 49
-0.9525
 74
    0
  0
LTYPE
  5
34
330
5
100
AcDbSymbolTableRecord
100
AcDbLinetypeTableRecord
  2
DOT2
 70
    0
  3
Dot (.5x) .....................................
 72
   65
 73
    2
 40
3.175
 49
0
 74
    0
 49
-3.175
 74
    0
  0
LTYPE
  5
35
330
5
100
AcDbSymbolTableRecord
100
AcDbLinetypeTableRecord
  2
DOTX2
 70
    0
  3
Dot (2x) .  .  .  .  .  .  .  .  .  .  .  .  .
 72
   65
 73
    2
 40
12.7
 49
0
 74
    0
 49
-12.7
 74
    0
  0
LTYPE
  5
36
330
5
100
AcDbSymbolTableRecord
100
AcDbLinetypeTableRecord
  2
DASHED
 70
    0
  3
Dashed _ _ _ _ _ _ _ _ _ _ _ _ _ _ _ _ _
 72
   65
 73
    2
 40
19.05
 49
12.7
 74
    0
 49
-6.35
 74
    0
  0
LTYPE
  5
37
330
5
100
AcDbSymbolTableRecord
100
AcDbLinetypeTableRecord
  2
DASHEDTINY
 70
    0
  3
Dashed (.15x) _ _ _ _ _ _ _ _ _ _ _ _ _ _ _ _ _
 72
   65
 73
    2
 40
2.8575
 49
1.905
 74
    0
 49
-0.9525
 74
    0
  0
LTYPE
  5
38
330
5
100
AcDbSymbolTableRecord
100
AcDbLinetypeTableRecord
  2
DASHED2
 70
    0
  3
Dashed (.5x) _ _ _ _ _ _ _ _ _ _ _ _ _ _ _ _ _
 72
   65
 73
    2
 40
9.524999999999999
 49
6.35
 74
    0
 49
-3.175
 74
    0
  0
LTYPE
  5
39
330
5
100
AcDbSymbolTableRecord
100
AcDbLinetypeTableRecord
  2
DASHEDX2
 70
    0
  3
Dashed (2x) ____  ____  ____  ____  ____  ___
 72
   65
 73
    2
 40
38.09999999999999
 49
25.4
 74
    0
 49
-12.7
 74
    0
  0
LTYPE
  5
3A
330
5
100
AcDbSymbolTableRecord
100
AcDbLinetypeTableRecord
  2
DASHDOT
 70
    0
  3
Dash dot __ . __ . __ . __ . __ . __ . __ . __
 72
   65
 73
    4
 40
25.4
 49
12.7
 74
    0
 49
-6.35
 74
    0
 49
0
 74
    0
 49
-6.35
 74
    0
  0
LTYPE
  5
3B
330
5
100
AcDbSymbolTableRecord
100
AcDbLinetypeTableRecord
  2
DASHDOTTINY
 70
    0
  3
Dash dot (.15x) _._._._._._._._._._._._._._._.
 72
   65
 73
    4
 40
3.81
 49
1.905
 74
    0
 49
-0.9525
 74
    0
 49
0
 74
    0
 49
-0.9525
 74
    0
  0
LTYPE
  5
3C
330
5
100
AcDbSymbolTableRecord
100
AcDbLinetypeTableRecord
  2
DASHDOT2
 70
    0
  3
Dash dot (.5x) _._._._._._._._._._._._._._._.
 72
   65
 73
    4
 40
12.7
 49
6.35
 74
    0
 49
-3.175
 74
    0
 49
0
 74
    0
 49
-3.175
 74
    0
  0
LTYPE
  5
3D
330
5
100
AcDbSymbolTableRecord
100
AcDbLinetypeTableRecord
  2
DASHDOTX2
 70
    0
  3
Dash dot (2x) ____  .  ____  .  ____  .  ___
 72
   65
 73
    4
 40
50.8
 49
25.4
 74
    0
 49
-12.7
 74
    0
 49
0
 74
    0
 49
-12.7
 74
    0
  0
LTYPE
  5
3E
330
5
100
AcDbSymbolTableRecord
100
AcDbLinetypeTableRecord
  2
DIVIDE
 70
    0
  3
Divide ____ . . ____ . . ____ . . ____ . . ____
 72
   65
 73
    6
 40
31.75
 49
12.7
 74
    0
 49
-6.35
 74
    0
 49
0
 74
    0
 49
-6.35
 74
    0
 49
0
 74
    0
 49
-6.35
 74
    0
  0
LTYPE
  5
3F
330
5
100
AcDbSymbolTableRecord
100
AcDbLinetypeTableRecord
  2
DIVIDETINY
 70
    0
  3
Divide (.15x) __..__..__..__..__..__..__..__.._
 72
   65
 73
    6
 40
4.7625
 49
1.905
 74
    0
 49
-0.9525
 74
    0
 49
0
 74
    0
 49
-0.9525
 74
    0
 49
0
 74
    0
 49
-0.9525
 74
    0
  0
LTYPE
  5
40
330
5
100
AcDbSymbolTableRecord
100
AcDbLinetypeTableRecord
  2
DIVIDE2
 70
    0
  3
Divide (.5x) __..__..__..__..__..__..__..__.._
 72
   65
 73
    6
 40
15.875
 49
6.35
 74
    0
 49
-3.175
 74
    0
 49
0
 74
    0
 49
-3.175
 74
    0
 49
0
 74
    0
 49
-3.175
 74
    0
  0
LTYPE
  5
41
330
5
100
AcDbSymbolTableRecord
100
AcDbLinetypeTableRecord
  2
DIVIDEX2
 70
    0
  3
Divide (2x) ________  .  .  ________  .  .  _
 72
   65
 73
    6
 40
63.5
 49
25.4
 74
    0
 49
-12.7
 74
    0
 49
0
 74
    0
 49
-12.7
 74
    0
 49
0
 74
    0
 49
-12.7
 74
    0
  0
LTYPE
  5
42
330
5
100
AcDbSymbolTableRecord
100
AcDbLinetypeTableRecord
  2
BORDER
 70
    0
  3
Border __ __ . __ __ . __ __ . __ __ . __ __ .
 72
   65
 73
    6
 40
44.45
 49
12.7
 74
    0
 49
-6.35
 74
    0
 49
12.7
 74
    0
 49
-6.35
 74
    0
 49
0
 74
    0
 49
-6.35
 74
    0
  0
LTYPE
  5
43
330
5
100
AcDbSymbolTableRecord
100
AcDbLinetypeTableRecord
  2
BORDERTINY
 70
    0
  3
Border (.15x) __.__.__.__.__.__.__.__.__.__.__.
 72
   65
 73
    6
 40
6.6675
 49
1.905
 74
    0
 49
-0.9525
 74
    0
 49
1.905
 74
    0
 49
-0.9525
 74
    0
 49
0
 74
    0
 49
-0.9525
 74
    0
  0
LTYPE
  5
44
330
5
100
AcDbSymbolTableRecord
100
AcDbLinetypeTableRecord
  2
BORDER2
 70
    0
  3
Border (.5x) __.__.__.__.__.__.__.__.__.__.__.
 72
   65
 73
    6
 40
22.225
 49
6.35
 74
    0
 49
-3.175
 74
    0
 49
6.35
 74
    0
 49
-3.175
 74
    0
 49
0
 74
    0
 49
-3.175
 74
    0
  0
LTYPE
  5
45
330
5
100
AcDbSymbolTableRecord
100
AcDbLinetypeTableRecord
  2
BORDERX2
 70
    0
  3
Border (2x) ____  ____  .  ____  ____  .  ___
 72
   65
 73
    6
 40
88.89999999999999
 49
25.4
 74
    0
 49
-12.7
 74
    0
 49
25.4
 74
    0
 49
-12.7
 74
    0
 49
0
 74
    0
 49
-12.7
 74
    0
  0
LTYPE
  5
46
330
5
100
AcDbSymbolTableRecord
100
AcDbLinetypeTableRecord
  2
CENTER
 70
    0
  3
Center ____ _ ____ _ ____ _ ____ _ ____ _ ____
 72
   65
 73
    4
 40
50.8
 49
31.75
 74
    0
 49
-6.35
 74
    0
 49
6.35
 74
    0
 49
-6.35
 74
    0
  0
LTYPE
  5
47
330
5
100
AcDbSymbolTableRecord
100
AcDbLinetypeTableRecord
  2
CENTERTINY
 70
    0
  3
Center (.15x) ___ _ ___ _ ___ _ ___ _ ___ _ ___
 72
   65
 73
    4
 40
7.62
 49
4.7625
 74
    0
 49
-0.9525
 74
    0
 49
0.9525
 74
    0
 49
-0.9525
 74
    0
  0
LTYPE
  5
48
330
5
100
AcDbSymbolTableRecord
100
AcDbLinetypeTableRecord
  2
CENTER2
 70
    0
  3
Center (.5x) ___ _ ___ _ ___ _ ___ _ ___ _ ___
 72
   65
 73
    4
 40
28.575
 49
19.05
 74
    0
 49
-3.175
 74
    0
 49
3.175
 74
    0
 49
-3.175
 74
    0
  0
LTYPE
  5
49
330
5
100
AcDbSymbolTableRecord
100
AcDbLinetypeTableRecord
  2
CENTERX2
 70
    0
  3
Center (2x) ________  __  ________  __  _____
 72
   65
 73
    4
 40
101.6
 49
63.5
 74
    0
 49
-12.7
 74
    0
 49
12.7
 74
    0
 49
-12.7
 74
    0
  0
ENDTAB
  0
TABLE
  2
LAYER
  5
2
330
0
100
AcDbSymbolTable
 70
    1
  0
LAYER
  5
10
330
2
100
AcDbSymbolTableRecord
100
AcDbLayerTableRecord
  2
0
 70
    0
 62
    7
  6
CONTINUOUS
370
    0
390
F
  0
ENDTAB
  0
TABLE
  2
STYLE
  5
3
330
0
100
AcDbSymbolTable
 70
    3
  0
STYLE
  5
4A
330
2
100
AcDbSymbolTableRecord
100
AcDbTextStyleTableRecord
  2
Standard
 70
    0
 40
0
 41
1
 50
0
 71
    0
 42
1
  3
txt
  4

  0
ENDTAB
  0
TABLE
  2
VIEW
  5
6
330
0
100
AcDbSymbolTable
 70
    0
  0
ENDTAB
  0
TABLE
  2
UCS
  5
7
330
0
100
AcDbSymbolTable
 70
    0
  0
ENDTAB
  0
TABLE
  2
APPID
  5
9
330
0
100
AcDbSymbolTable
 70
    1
  0
APPID
  5
12
330
9
100
AcDbSymbolTableRecord
100
AcDbRegAppTableRecord
  2
ACAD
 70
    0
  0
APPID
  5
4B
330
9
100
AcDbSymbolTableRecord
100
AcDbRegAppTableRecord
  2
LibreCad
 70
    0
  0
ENDTAB
  0
TABLE
  2
DIMSTYLE
  5
A
330
0
100
AcDbSymbolTable
 70
    1
100
AcDbDimStyleTable
 71
    1
  0
DIMSTYLE
105
4C
330
A
100
AcDbSymbolTableRecord
100
AcDbDimStyleTableRecord
  2
Standard
 70
    0
 40
1
 41
2.5
 42
0.625
 43
0.38
 44
1.25
 45
0
 46
0
 47
0
 48
0
 49
1
140
2.5
141
0.09
142
0
143
25.4
144
1
145
0
146
1
147
0.625
148
0
 71
    0
 72
    0
 73
    0
 74
    1
 75
    0
 76
    0
 77
    0
 78
    1
 79
    0
170
    0
171
    2
172
    0
173
    0
174
    0
175
    0
176
    6
177
  176
178
    2
179
    2
271
    4
272
    4
273
    2
274
    2
275
    0
276
    0
277
    2
278
    0
279
    0
280
    0
281
    0
282
    0
283
    1
284
    0
285
    0
286
    0
288
    0
289
    3
340
standard
341

371
   -2
372
   -2
  0
ENDTAB
  0
TABLE
  2
BLOCK_RECORD
  5
1
330
0
100
AcDbSymbolTable
 70
    2
  0
BLOCK_RECORD
  5
1F
330
1
100
AcDbSymbolTableRecord
100
AcDbBlockTableRecord
  2
*Model_Space
 70
    0
280
    1
281
    0
  0
BLOCK_RECORD
  5
1E
330
1
100
AcDbSymbolTableRecord
100
AcDbBlockTableRecord
  2
*Paper_Space
 70
    0
280
    1
281
    0
  0
BLOCK_RECORD
  5
4D
330
1
100
AcDbSymbolTableRecord
100
AcDbBlockTableRecord
  2
*D3
 70
    0
280
    1
281
    0
  0
BLOCK_RECORD
  5
50
330
1
100
AcDbSymbolTableRecord
100
AcDbBlockTableRecord
  2
*D1
 70
    0
280
    1
281
    0
  0
BLOCK_RECORD
  5
53
330
1
100
AcDbSymbolTableRecord
100
AcDbBlockTableRecord
  2
*D6
 70
    0
280
    1
281
    0
  0
BLOCK_RECORD
  5
56
330
1
100
AcDbSymbolTableRecord
100
AcDbBlockTableRecord
  2
*D4
 70
    0
280
    1
281
    0
  0
BLOCK_RECORD
  5
59
330
1
100
AcDbSymbolTableRecord
100
AcDbBlockTableRecord
  2
*D9
 70
    0
280
    1
281
    0
  0
BLOCK_RECORD
  5
5C
330
1
100
AcDbSymbolTableRecord
100
AcDbBlockTableRecord
  2
*D8
 70
    0
280
    1
281
    0
  0
BLOCK_RECORD
  5
5F
330
1
100
AcDbSymbolTableRecord
100
AcDbBlockTableRecord
  2
*D5
 70
    0
280
    1
281
    0
  0
BLOCK_RECORD
  5
62
330
1
100
AcDbSymbolTableRecord
100
AcDbBlockTableRecord
  2
*D7
 70
    0
280
    1
281
    0
  0
BLOCK_RECORD
  5
65
330
1
100
AcDbSymbolTableRecord
100
AcDbBlockTableRecord
  2
*D2
 70
    0
280
    1
281
    0
  0
ENDTAB
  0
ENDSEC
  0
SECTION
  2
BLOCKS
  0
BLOCK
  5
20
330
1F
100
AcDbEntity
  8
0
100
AcDbBlockBegin
  2
*Model_Space
 70
    0
 10
0
 20
0
 30
0
  3
*Model_Space
  1

  0
ENDBLK
  5
21
330
1F
100
AcDbEntity
  8
0
100
AcDbBlockEnd
  0
BLOCK
  5
1C
330
1B
100
AcDbEntity
  8
0
100
AcDbBlockBegin
  2
*Paper_Space
 70
    0
 10
0
 20
0
 30
0
  3
*Paper_Space
  1

  0
ENDBLK
  5
1D
330
1F
100
AcDbEntity
  8
0
100
AcDbBlockEnd
  0
BLOCK
  5
4E
330
4D
100
AcDbEntity
  8
0
100
AcDbBlockBegin
  2
*D3
 70
    1
 10
0
 20
0
  3
*D3
  1

  0
ARC
  5
68
100
AcDbEntity
  8
0
  6
ByBlock
 62
    6
370
   -2
100
AcDbCircle
 10
0
 20
-0
 40
36.07883832492438
100
AcDbArc
 50
59.99999999999999
 51
90
  0
SOLID
  5
69
100
AcDbEntity
  8
0
  6
ByBlock
 62
    6
370
   -2
100
AcDbTrace
 10
18.03941916246219
 20
31.24519052841611
 30
0
 11
15.63682623519881
 21
32.05193716904192
 31
0
 12
16.02788514358499
 22
32.78695049909793
 32
0
 13
16.02788514358499
 23
32.78695049909793
 33
0
  0
SOLID
  5
6A
100
AcDbEntity
  8
0
  6
ByBlock
 62
    6
370
   -2
100
AcDbTrace
 10
2.209118732561634e-15
 20
36.07883832492438
 30
0
 11
2.512919546265171
 21
36.40827461663418
 31
0
 12
2.484079830275814
 22
35.5762049464924
 32
0
 13
2.484079830275814
 23
35.5762049464924
 33
0
  0
MTEXT
  5
6B
100
AcDbEntity
  8
0
  6
CONTINUOUS
 62
    2
370
   -2
100
AcDbMText
 10
9.49965238685424
 20
35.45318536198295
 30
0
 40
2.5
 41
9.444444444444599
 71
    8
 72
    1
  1
30.00%%D
  7
standard
210
0
220
0
230
1
 50
344.9999999999999
 73
    2
 44
1
  0
ENDBLK
  5
4F
330
4D
100
AcDbEntity
  8
0
100
AcDbBlockEnd
  0
BLOCK
  5
51
330
50
100
AcDbEntity
  8
0
100
AcDbBlockBegin
  2
*D1
 70
    1
 10
0
 20
0
  3
*D1
  1

  0
LINE
  5
6C
100
AcDbEntity
  8
0
  6
ByBlock
 62
  176
370
   -2
100
AcDbLine
 10
18.11961126790529
 20
26.60489264214385
 11
23.64124278936391
 21
32.12652416360246
  0
LINE
  5
6D
100
AcDbEntity
  8
0
  6
ByBlock
 62
  176
370
   -2
100
AcDbLine
 10
26.60490195502457
 20
18.11960195502457
 11
32.12653347648319
 21
23.64123347648318
  0
LINE
  5
6E
100
AcDbEntity
  8
0
  6
ByBlock
 62
    6
370
   -2
100
AcDbLine
 10
22.75735931288072
 20
31.24264068711928
 11
31.24265
 21
22.75735
  0
MTEXT
  5
6F
100
AcDbEntity
  8
0
  6
CONTINUOUS
 62
    2
370
   -2
100
AcDbMText
 10
28.32582987116514
 20
28.32582055828442
 30
0
 40
2.5
 41
11.11111111111111
 71
    5
 72
    1
  1
12.0000
  7
standard
210
0
220
0
230
1
 50
315
 73
    2
 44
1
  0
SOLID
  5
70
100
AcDbEntity
  8
0
  6
ByBlock
 62
    6
370
   -2
100
AcDbTrace
 10
22.75735931288072
 20
31.24264068711928
 30
0
 11
24.81948397026219
 21
29.76923143856801
 31
0
 12
24.23076856143199
 22
29.18051602973782
 32
0
 13
24.23076856143199
 23
29.18051602973782
 33
0
  0
SOLID
  5
71
100
AcDbEntity
  8
0
  6
ByBlock
 62
    6
370
   -2
100
AcDbTrace
 10
31.24265
 20
22.75735
 30
0
 11
29.18052534261854
 21
24.23075924855127
 31
0
 12
29.76924075144873
 22
24.81947465738147
 32
0
 13
29.76924075144873
 23
24.81947465738147
 33
0
  0
ENDBLK
  5
52
330
50
100
AcDbEntity
  8
0
100
AcDbBlockEnd
  0
BLOCK
  5
54
330
53
100
AcDbEntity
  8
0
100
AcDbBlockBegin
  2
*D6
 70
    1
 10
0
 20
0
  3
*D6
  1

  0
LINE
  5
72
100
AcDbEntity
  8
0
  6
ByBlock
 62
    6
370
   -2
100
AcDbLine
 10
-73.04861394988957
 20
-24.34953798329651
 11
73.04861394988956
 21
24.34953798329652
  0
MTEXT
  5
73
100
AcDbEntity
  8
0
  6
CONTINUOUS
 62
    2
370
   -2
100
AcDbMText
 10
-0.592927061281578
 20
1.778781183844721
 30
0
 40
2.5
 41
13.33333333333349
 71
    5
 72
    1
  1
154.0000
  7
standard
210
0
220
0
230
1
 50
18.43494882292201
 73
    2
 44
1
  0
SOLID
  5
74
100
AcDbEntity
  8
0
  6
ByBlock
 62
    6
370
   -2
100
AcDbTrace
 10
-73.04861394988957
 20
-24.34953798329651
 30
0
 11
-70.80854647211788
 21
-23.16404626619065
 31
0
 12
-70.5452649374087
 22
-23.95389087031818
 32
0
 13
-70.5452649374087
 23
-23.95389087031818
 33
0
  0
SOLID
  5
75
100
AcDbEntity
  8
0
  6
ByBlock
 62
    6
370
   -2
100
AcDbTrace
 10
73.04861394988956
 20
24.34953798329652
 30
0
 11
70.80854647211787
 21
23.16404626619066
 31
0
 12
70.54526493740869
 22
23.95389087031819
 32
0
 13
70.54526493740869
 23
23.95389087031819
 33
0
  0
ENDBLK
  5
55
330
53
100
AcDbEntity
  8
0
100
AcDbBlockEnd
  0
BLOCK
  5
57
330
56
100
AcDbEntity
  8
0
100
AcDbBlockBegin
  2
*D4
 70
    1
 10
0
 20
0
  3
*D4
  1

  0
LINE
  5
76
100
AcDbEntity
  8
0
  6
ByBlock
 62
    6
370
   -2
100
AcDbLine
 10
-24.2535625036333
 20
6.063390625908313
 11
24.25356250363329
 21
-6.063390625908331
  0
MTEXT
  5
77
100
AcDbEntity
  8
0
  6
CONTINUOUS
 62
    2
370
   -2
100
AcDbMText
 10
0.4547542969431214
 20
1.819017187772488
 30
0
 40
2.5
 41
11.66666666666682
 71
    5
 72
    1
  1
50.0000
  7
standard
210
0
220
0
230
1
 50
345.9637565320735
 73
    2
 44
1
  0
SOLID
  5
78
100
AcDbEntity
  8
0
  6
ByBlock
 62
    6
370
   -2
100
AcDbTrace
 10
-24.2535625036333
 20
6.063390625908313
 30
0
 11
-21.727242393604
 21
5.860907001981368
 31
0
 12
-21.92917011293594
 22
5.053196124653594
 32
0
 13
-21.92917011293594
 23
5.053196124653594
 33
0
  0
SOLID
  5
79
100
AcDbEntity
  8
0
  6
ByBlock
 62
    6
370
   -2
100
AcDbTrace
 10
24.25356250363329
 20
-6.063390625908331
 30
0
 11
21.72724239360399
 21
-5.860907001981386
 31
0
 12
21.92917011293594
 22
-5.053196124653611
 32
0
 13
21.92917011293594
 23
-5.053196124653611
 33
0
  0
ENDBLK
  5
58
330
56
100
AcDbEntity
  8
0
100
AcDbBlockEnd
  0
BLOCK
  5
5A
330
59
100
AcDbEntity
  8
0
100
AcDbBlockBegin
  2
*D9
 70
    1
 10
0
 20
0
  3
*D9
  1

  0
LINE
  5
7A
100
AcDbEntity
  8
0
  6
ByBlock
 62
  176
370
   -2
100
AcDbLine
 10
74.97999226568894
 20
-20.09082837608318
 11
79.08283705566853
 21
-21.19018232422845
  0
LINE
  5
7B
100
AcDbEntity
  8
0
  6
ByBlock
 62
  176
370
   -2
100
AcDbLine
 10
74.97999226568894
 20
20.09082837608316
 11
79.08283705566853
 21
21.19018232422844
  0
ARC
  5
7C
100
AcDbEntity
  8
0
  6
ByBlock
 62
    6
370
   -2
100
AcDbCircle
 10
-3.037218311455837e-14
 20
-2.109305566828298e-15
 40
80.62257748298552
100
AcDbArc
 50
345
 51
14.99999999999999
  0
SOLID
  5
7D
100
AcDbEntity
  8
0
  6
ByBlock
 62
    6
370
   -2
100
AcDbTrace
 10
77.87542977280719
 20
-20.8666585178503
 30
0
 11
78.08123882479842
 21
-18.3406071425977
 31
0
 12
78.8886831881902
 22
-18.54359794341154
 32
0
 13
78.8886831881902
 23
-18.54359794341154
 33
0
  0
SOLID
  5
7E
100
AcDbEntity
  8
0
  6
ByBlock
 62
    6
370
   -2
100
AcDbTrace
 10
77.87542977280719
 20
20.86665851785029
 30
0
 11
78.8886831881902
 21
18.54359794341153
 31
0
 12
78.08123882479842
 22
18.34060714259769
 32
0
 13
78.08123882479842
 23
18.34060714259769
 33
0
  0
MTEXT
  5
7F
100
AcDbEntity
  8
0
  6
CONTINUOUS
 62
    2
370
   -2
100
AcDbMText
 10
79.99757748298549
 20
-2.17789517991546e-14
 30
0
 40
2.5
 41
9.444444444444599
 71
    8
 72
    1
  1
30.00%%D
  7
standard
210
0
220
0
230
1
 50
90
 73
    2
 44
1
  0
ENDBLK
  5
5B
330
59
100
AcDbEntity
  8
0
100
AcDbBlockEnd
  0
BLOCK
  5
5D
330
5C
100
AcDbEntity
  8
0
100
AcDbBlockBegin
  2
*D8
 70
    1
 10
0
 20
0
  3
*D8
  1

  0
ARC
  5
80
100
AcDbEntity
  8
0
  6
ByBlock
 62
    6
370
   -2
100
AcDbCircle
 10
-2.250014757046727e-14
 20
2.755382367673535e-30
 40
70.71067811865478
100
AcDbArc
 50
0
 51
14.99999999999999
  0
SOLID
  5
81
100
AcDbEntity
  8
0
  6
ByBlock
 62
    6
370
   -2
100
AcDbTrace
 10
70.71067811865476
 20
2.755382367673535e-30
 30
0
 11
70.2502666315856
 21
2.492250825834315
 31
0
 12
71.08270586156343
 22
2.506967944510525
 32
0
 13
71.08270586156343
 23
2.506967944510525
 33
0
  0
SOLID
  5
82
100
AcDbEntity
  8
0
  6
ByBlock
 62
    6
370
   -2
100
AcDbTrace
 10
68.30127018922194
 20
18.30127018922193
 30
0
 11
69.3094724436943
 21
15.97601297111166
 31
0
 12
68.50158882204011
 22
15.77477748952083
 32
0
 13
68.50158882204011
 23
15.77477748952083
 33
0
  0
MTEXT
  5
83
100
AcDbEntity
  8
0
  6
CONTINUOUS
 62
    2
370
   -2
100
AcDbMText
 10
70.72539150335642
 20
9.311174434263256
 30
0
 40
2.5
 41
8.888888888889046
 71
    8
 72
    1
  1
15.00%%D
  7
standard
210
0
220
0
230
1
 50
277.5
 73
    2
 44
1
  0
ENDBLK
  5
5E
330
5C
100
AcDbEntity
  8
0
100
AcDbBlockEnd
  0
BLOCK
  5
60
330
5F
100
AcDbEntity
  8
0
100
AcDbBlockBegin
  2
*D5
 70
    1
 10
0
 20
0
  3
*D5
  1

  0
LINE
  5
84
100
AcDbEntity
  8
0
  6
ByBlock
 62
    6
370
   -2
100
AcDbLine
 10
-26.7256831493656
 20
-54.83372922025016
 11
26.72568314936561
 21
54.83372922025015
  0
MTEXT
  5
85
100
AcDbEntity
  8
0
  6
CONTINUOUS
 62
    2
370
   -2
100
AcDbMText
 10
-1.68546298832736
 20
0.8214861623780374
 30
0
 40
2.5
 41
13.05555555555556
 71
    5
 72
    1
  1
122.0000
  7
standard
210
0
220
0
230
1
 50
64.01562940881473
 73
    2
 44
1
  0
SOLID
  5
86
100
AcDbEntity
  8
0
  6
ByBlock
 62
    6
370
   -2
100
AcDbTrace
 10
-26.7256831493656
 20
-54.83372922025016
 30
0
 11
-26.00457220394669
 21
-52.40406012329598
 31
0
 12
-25.25616432844307
 22
-52.76883034833136
 32
0
 13
-25.25616432844307
 23
-52.76883034833136
 33
0
  0
SOLID
  5
87
100
AcDbEntity
  8
0
  6
ByBlock
 62
    6
370
   -2
100
AcDbTrace
 10
26.72568314936561
 20
54.83372922025015
 30
0
 11
26.0045722039467
 21
52.40406012329598
 31
0
 12
25.25616432844308
 22
52.76883034833136
 32
0
 13
25.25616432844308
 23
52.76883034833136
 33
0
  0
ENDBLK
  5
61
330
5F
100
AcDbEntity
  8
0
100
AcDbBlockEnd
  0
BLOCK
  5
63
330
62
100
AcDbEntity
  8
0
100
AcDbBlockBegin
  2
*D7
 70
    1
 10
0
 20
0
  3
*D7
  1

  0
LINE
  5
88
100
AcDbEntity
  8
0
  6
ByBlock
 62
    6
370
   -2
100
AcDbLine
 10
-24.76152574878841
 20
54.52977489717018
 11
-36.26408208227488
 21
51.11053553804798
  0
MTEXT
  5
89
100
AcDbEntity
  8
0
  6
CONTINUOUS
 62
    2
370
   -2
100
AcDbMText
 10
-31.04706006539448
 20
54.61742964471635
 30
0
 40
2.5
 41
11.11111111111111
 71
    5
 72
    1
  1
12.0000
  7
standard
210
0
220
0
230
1
 50
16.55505969477613
 73
    2
 44
1
  0
SOLID
  5
8A
100
AcDbEntity
  8
0
  6
ByBlock
 62
    6
370
   -2
100
AcDbTrace
 10
-24.76152574878841
 20
54.52977489717018
 30
0
 11
-27.03927691106012
 21
53.41840522011987
 31
0
 12
-27.27650639213606
 22
54.21646150791958
 32
0
 13
-27.27650639213606
 23
54.21646150791958
 33
0
  0
SOLID
  5
8B
100
AcDbEntity
  8
0
  6
ByBlock
 62
    6
370
   -2
100
AcDbTrace
 10
-36.26408208227488
 20
51.11053553804798
 30
0
 11
-33.98633092000316
 21
52.2219052150983
 31
0
 12
-33.74910143892723
 22
51.42384892729859
 32
0
 13
-33.74910143892723
 23
51.42384892729859
 33
0
  0
ENDBLK
  5
64
330
62
100
AcDbEntity
  8
0
100
AcDbBlockEnd
  0
BLOCK
  5
66
330
65
100
AcDbEntity
  8
0
100
AcDbBlockBegin
  2
*D2
 70
    1
 10
0
 20
0
  3
*D2
  1

  0
ARC
  5
8C
100
AcDbEntity
  8
0
  6
ByBlock
 62
    6
370
   -2
100
AcDbCircle
 10
0
 20
-0
 40
56.30522387450235
100
AcDbArc
 50
29.99999999999999
 51
59.99999999999999
  0
SOLID
  5
8D
100
AcDbEntity
  8
0
  6
ByBlock
 62
    6
370
   -2
100
AcDbTrace
 10
48.76175424108911
 20
28.15261193725116
 30
0
 11
47.10819709704058
 21
30.07329975354592
 31
0
 12
47.81980466196861
 22
30.50548760474653
 32
0
 13
47.81980466196861
 23
30.50548760474653
 33
0
  0
SOLID
  5
8E
100
AcDbEntity
  8
0
  6
ByBlock
 62
    6
370
   -2
100
AcDbTrace
 10
28.15261193725118
 20
48.76175424108911
 30
0
 11
30.50548760474654
 21
47.8198046619686
 31
0
 12
30.07329975354593
 22
47.10819709704057
 32
0
 13
30.07329975354593
 23
47.10819709704057
 33
0
  0
MTEXT
  5
8F
100
AcDbEntity
  8
0
  6
CONTINUOUS
 62
    2
370
   -2
100
AcDbMText
 10
40.25574735612889
 20
40.25574735612889
 30
0
 40
2.5
 41
9.444444444444599
 71
    8
 72
    1
  1
30.00%%D
  7
standard
210
0
220
0
230
1
 50
315
 73
    2
 44
1
  0
ENDBLK
  5
67
330
65
100
AcDbEntity
  8
0
100
AcDbBlockEnd
  0
ENDSEC
  0
SECTION
  2
ENTITIES
  0
LINE
  5
90
100
AcDbEntity
  8
0
  6
DOT2
 62
  256
370
   -1
100
AcDbLine
 10
-6.123031769111886e-15
 20
-100
 11
6.123031769111886e-15
 21
100
  0
LINE
  5
91
100
AcDbEntity
  8
0
  6
DOT2
 62
  256
370
   -1
100
AcDbLine
 10
100
 20
-1.224606353822377e-14
 11
-100
 21
1.224606353822377e-14
  0
LINE
  5
92
100
AcDbEntity
  8
0
  6
DOT2
 62
  256
370
   -1
100
AcDbLine
 10
-35.35533905932738
 20
-35.35533905932737
 11
35.35533905932738
 21
35.35533905932737
  0
LINE
  5
93
100
AcDbEntity
  8
0
  6
DOT2
 62
  256
370
   -1
100
AcDbLine
 10
35.35533905932737
 20
-35.35533905932738
 11
-35.35533905932737
 21
35.35533905932738
  0
LINE
  5
94
100
AcDbEntity
  8
0
  6
ByLayer
 62
  256
370
   -1
100
AcDbLine
 10
26.16296021678297
 20
17.67766021678298
 11
21.92031021678298
 21
21.92031021678297
  0
LINE
  5
95
100
AcDbEntity
  8
0
  6
ByLayer
 62
  256
370
   -1
100
AcDbLine
 10
26.16296021678297
 20
17.67766021678298
 11
21.92031021678298
 21
21.92031021678297
  0
LINE
  5
96
100
AcDbEntity
  8
0
  6
ByLayer
 62
  256
370
   -1
100
AcDbLine
 10
17.6776695296637
 20
26.16295090390226
 11
21.92031021678298
 21
21.92031021678297
  0
LINE
  5
97
100
AcDbEntity
  8
0
  6
ByLayer
 62
  256
370
   -1
100
AcDbLine
 10
26.16296021678297
 20
17.67766021678298
 11
21.92031021678298
 21
21.92031021678297
  0
LINE
  5
98
100
AcDbEntity
  8
0
  6
ByLayer
 62
  256
370
   -1
100
AcDbLine
 10
26.16295090390226
 20
-17.6776695296637
 11
21.92031021678297
 21
-21.92031021678298
  0
LINE
  5
99
100
AcDbEntity
  8
0
  6
ByLayer
 62
  256
370
   -1
100
AcDbLine
 10
17.67766952966369
 20
-26.16295090390226
 11
21.92031021678297
 21
-21.92031021678298
  0
LINE
  5
9A
100
AcDbEntity
  8
0
  6
ByLayer
 62
  256
370
   -1
100
AcDbLine
 10
-17.67766021678298
 20
-26.16296021678297
 11
-21.92031021678298
 21
-21.92031021678297
  0
LINE
  5
9B
100
AcDbEntity
  8
0
  6
ByLayer
 62
  256
370
   -1
100
AcDbLine
 10
-26.16295090390226
 20
-17.67766952966369
 11
-21.92031021678298
 21
-21.92031021678297
  0
LINE
  5
9C
100
AcDbEntity
  8
0
  6
ByLayer
 62
  256
370
   -1
100
AcDbLine
 10
-17.67766952966369
 20
26.16295090390226
 11
-21.92031021678297
 21
21.92031021678298
  0
LINE
  5
9D
100
AcDbEntity
  8
0
  6
ByLayer
 62
  256
370
   -1
100
AcDbLine
 10
-26.16295090390226
 20
17.6776695296637
 11
-21.92031021678297
 21
21.92031021678298
  0
LINE
  5
9E
100
AcDbEntity
  8
0
  6
ByLayer
 62
  256
370
   -1
100
AcDbLine
 10
-21.4036429888498
 20
12.91836161461123
 11
-26.16295090390226
 21
17.6776695296637
  0
LINE
  5
9F
100
AcDbEntity
  8
0
  6
ByLayer
 62
  256
370
   -1
100
AcDbLine
 10
-12.91836161461123
 20
21.4036429888498
 11
-17.67766952966369
 21
26.16295090390226
  0
LINE
  5
A0
100
AcDbEntity
  8
0
  6
ByLayer
 62
  256
370
   -1
100
AcDbLine
 10
12.91836161461123
 20
21.4036429888498
 11
17.6776695296637
 21
26.16295090390226
  0
LINE
  5
A1
100
AcDbEntity
  8
0
  6
ByLayer
 62
  256
370
   -1
100
AcDbLine
 10
21.40364999934444
 20
12.91834999934444
 11
26.16296021678297
 21
17.67766021678298
  0
LINE
  5
A2
100
AcDbEntity
  8
0
  6
ByLayer
 62
  256
370
   -1
100
AcDbLine
 10
-21.40364298884981
 20
-12.91836161461123
 11
-26.16295090390227
 21
-17.67766952966369
  0
LINE
  5
A3
100
AcDbEntity
  8
0
  6
ByLayer
 62
  256
370
   -1
100
AcDbLine
 10
-12.91836161461123
 20
-21.4036429888498
 11
-17.67766952966369
 21
-26.16295090390226
  0
LINE
  5
A4
100
AcDbEntity
  8
0
  6
ByLayer
 62
  256
370
   -1
100
AcDbLine
 10
12.91836161461122
 20
-21.4036429888498
 11
17.6776695296637
 21
-26.16295090390226
  0
LINE
  5
A5
100
AcDbEntity
  8
0
  6
ByLayer
 62
  256
370
   -1
100
AcDbLine
 10
21.40364999934443
 20
-12.91834999934445
 11
26.16296021678297
 21
-17.67766021678298
  0
ARC
  5
A6
100
AcDbEntity
  8
0
  6
ByLayer
 62
  256
370
   -1
100
AcDbCircle
 10
0
 20
0
 40
25
100
AcDbArc
 50
328.9131077163947
 51
31.12162059634849
  0
ARC
  5
A7
100
AcDbEntity
  8
0
  6
ByLayer
 62
  256
370
   -1
100
AcDbCircle
 10
0
 20
0
 40
25
100
AcDbArc
 50
58.86478078703118
 51
121.090496870968
  0
ARC
  5
A8
100
AcDbEntity
  8
0
  6
ByLayer
 62
  256
370
   -1
100
AcDbCircle
 10
0
 20
0
 40
25
100
AcDbArc
 50
148.8954901917644
 51
211.1416142563938
  0
ARC
  5
A9
100
AcDbEntity
  8
0
  6
ByLayer
 62
  256
370
   -1
100
AcDbCircle
 10
0
 20
0
 40
25
100
AcDbArc
 50
239.0362434679265
 51
301.1299625519495
  0
DIMENSION
  5
AA
100
AcDbEntity
  8
0
  6
ByLayer
 62
  256
370
   -1
100
AcDbDimension
  2
*D1
 10
31.24265
 20
22.75735
 30
0
 11
28.32582987116514
 21
28.32582055828442
 31
0
 70
   33
 71
    5
  3
Standard
 53
0
210
0
220
0
230
1
100
AcDbAlignedDimension
 13
17.6776695296637
 23
26.16295090390226
 33
0
 14
26.16296021678297
 24
17.67766021678298
 34
0
  0
LINE
  5
AB
100
AcDbEntity
  8
0
  6
ByLayer
 62
  256
370
   -1
100
AcDbLine
 10
-58.92147540363317
 20
15.78796175125376
 11
-74.37628862425827
 21
19.9290664728941
  0
LINE
  5
AC
100
AcDbEntity
  8
0
  6
ByLayer
 62
  256
370
   -1
100
AcDbLine
 10
-74.37628862425827
 20
-19.9290664728941
 11
-58.92147540363317
 21
-15.78796175125377
  0
LINE
  5
AD
100
AcDbEntity
  8
0
  6
ByLayer
 62
  256
370
   -1
100
AcDbLine
 10
58.92147540363317
 20
15.78796175125376
 11
74.37628862425827
 21
19.92906647289409
  0
LINE
  5
AE
100
AcDbEntity
  8
0
  6
ByLayer
 62
  256
370
   -1
100
AcDbLine
 10
74.37628862425827
 20
-19.92906647289411
 11
58.92147540363317
 21
-15.78796175125378
  0
ARC
  5
AF
100
AcDbEntity
  8
0
  6
ByLayer
 62
  256
370
   -1
100
AcDbCircle
 10
0
 20
0
 40
77
100
AcDbArc
 50
104.9387640859834
 51
165.0387032315929
  0
ARC
  5
B0
100
AcDbEntity
  8
0
  6
ByLayer
 62
  256
370
   -1
100
AcDbCircle
 10
0
 20
0
 40
77
100
AcDbArc
 50
14.87179964770023
 51
75.07932933058109
  0
ARC
  5
B1
100
AcDbEntity
  8
0
  6
ByLayer
 62
  256
370
   -1
100
AcDbCircle
 10
0
 20
0
 40
77
100
AcDbArc
 50
194.8250122778637
 51
255.051060284202
  0
ARC
  5
B2
100
AcDbEntity
  8
0
  6
ByLayer
 62
  256
370
   -1
100
AcDbCircle
 10
0
 20
0
 40
77
100
AcDbArc
 50
284.849674554174
 51
345.1282003522998
  0
LINE
  5
B3
100
AcDbEntity
  8
0
  6
ByLayer
 62
  256
370
   -1
100
AcDbLine
 10
-19.92906647289411
 20
74.37628862425827
 11
-15.78796175125377
 21
58.92147540363316
  0
LINE
  5
B4
100
AcDbEntity
  8
0
  6
ByLayer
 62
  256
370
   -1
100
AcDbLine
 10
15.78796175125377
 20
58.92147540363317
 11
19.9290664728941
 21
74.37628862425827
  0
LINE
  5
B5
100
AcDbEntity
  8
0
  6
ByLayer
 62
  256
370
   -1
100
AcDbLine
 10
-19.92906647289408
 20
-74.37628862425827
 11
-15.78796175125381
 21
-58.92147540363316
  0
LINE
  5
B6
100
AcDbEntity
  8
0
  6
ByLayer
 62
  256
370
   -1
100
AcDbLine
 10
15.78796175125381
 20
-58.92147540363317
 11
19.92906647289411
 21
-74.37628862425827
  0
ARC
  5
B7
100
AcDbEntity
  8
0
  6
ByLayer
 62
  256
370
   -1
100
AcDbCircle
 10
0
 20
0
 40
61
100
AcDbArc
 50
164.8781959518119
 51
195.1218040481881
  0
ARC
  5
B8
100
AcDbEntity
  8
0
  6
ByLayer
 62
  256
370
   -1
100
AcDbCircle
 10
0
 20
0
 40
61
100
AcDbArc
 50
74.98163936884933
 51
105.055996574251
  0
ARC
  5
B9
100
AcDbEntity
  8
0
  6
ByLayer
 62
  256
370
   -1
100
AcDbCircle
 10
0
 20
0
 40
61
100
AcDbArc
 50
344.944003425749
 51
15.05599657425097
  0
ARC
  5
BA
100
AcDbEntity
  8
0
  6
ByLayer
 62
  256
370
   -1
100
AcDbCircle
 10
0
 20
0
 40
61
100
AcDbArc
 50
255.0631467896669
 51
285.1218040481881
  0
ARC
  5
BB
100
AcDbEntity
  8
0
  6
DASHED
 62
  256
370
   -1
100
AcDbCircle
 10
0
 20
0
 40
61
100
AcDbArc
 50
285.122
 51
344.944
  0
ARC
  5
BC
100
AcDbEntity
  8
0
  6
DASHED
 62
  256
370
   -1
100
AcDbCircle
 10
0
 20
0
 40
61
100
AcDbArc
 50
15.056
 51
74.9816
  0
ARC
  5
BD
100
AcDbEntity
  8
0
  6
DASHED
 62
  256
370
   -1
100
AcDbCircle
 10
0
 20
0
 40
61
100
AcDbArc
 50
105.056
 51
164.878
  0
ARC
  5
BE
100
AcDbEntity
  8
0
  6
DASHED
 62
  256
370
   -1
100
AcDbCircle
 10
0
 20
0
 40
61
100
AcDbArc
 50
195.122
 51
255.063
  0
CIRCLE
  5
BF
100
AcDbEntity
  8
0
  6
ByLayer
 62
  256
370
   -1
100
AcDbCircle
 10
30.51280391553165
 20
52.82015521760908
 40
6
  0
CIRCLE
  5
C0
100
AcDbEntity
  8
0
  6
ByLayer
 62
  256
370
   -1
100
AcDbCircle
 10
52.86160909296726
 20
30.51966423962142
 40
6
  0
CIRCLE
  5
C1
100
AcDbEntity
  8
0
  6
ByLayer
 62
  256
370
   -1
100
AcDbCircle
 10
-30.51280391553164
 20
52.82015521760908
 40
6
  0
CIRCLE
  5
C2
100
AcDbEntity
  8
0
  6
ByLayer
 62
  256
370
   -1
100
AcDbCircle
 10
-52.86160909296725
 20
30.51966423962142
 40
6
  0
CIRCLE
  5
C3
100
AcDbEntity
  8
0
  6
ByLayer
 62
  256
370
   -1
100
AcDbCircle
 10
-52.82015521760909
 20
-30.51280391553164
 40
6
  0
CIRCLE
  5
C4
100
AcDbEntity
  8
0
  6
ByLayer
 62
  256
370
   -1
100
AcDbCircle
 10
-30.51966423962142
 20
-52.86160909296727
 40
6
  0
CIRCLE
  5
C5
100
AcDbEntity
  8
0
  6
ByLayer
 62
  256
370
   -1
100
AcDbCircle
 10
30.51280391553162
 20
-52.82015521760909
 40
6
  0
CIRCLE
  5
C6
100
AcDbEntity
  8
0
  6
ByLayer
 62
  256
370
   -1
100
AcDbCircle
 10
52.86160909296726
 20
-30.51966423962143
 40
6
  0
CIRCLE
  5
C7
100
AcDbEntity
  8
0
  6
ByLayer
 62
  256
370
   -1
100
AcDbCircle
 10
-52.82015521760908
 20
30.51280391553166
 40
6
  0
CIRCLE
  5
C8
100
AcDbEntity
  8
0
  6
ByLayer
 62
  256
370
   -1
100
AcDbCircle
 10
-30.51966423962141
 20
52.86160909296728
 40
6
  0
LINE
  5
C9
100
AcDbEntity
  8
0
  6
DASHEDTINY
 62
  256
370
   -1
100
AcDbLine
 10
-66.68395609140178
 20
-38.49999999999999
 11
66.68395609140178
 21
38.49999999999999
  0
LINE
  5
CA
100
AcDbEntity
  8
0
  6
DASHEDTINY
 62
  256
370
   -1
100
AcDbLine
 10
-38.5
 20
-66.68395609140177
 11
38.5
 21
66.68395609140177
  0
LINE
  5
CB
100
AcDbEntity
  8
0
  6
DASHEDTINY
 62
  256
370
   -1
100
AcDbLine
 10
-66.68395609140178
 20
38.49999999999999
 11
66.68395609140178
 21
-38.49999999999999
  0
LINE
  5
CC
100
AcDbEntity
  8
0
  6
DASHEDTINY
 62
  256
370
   -1
100
AcDbLine
 10
-38.50000000000001
 20
66.68395609140178
 11
38.49999999999999
 21
-66.68395609140178
  0
DIMENSION
  5
CD
100
AcDbEntity
  8
0
  6
ByLayer
 62
  256
370
   -1
100
AcDbDimension
  2
*D2
 10
38.5
 20
66.68395609140177
 30
0
 11
0
 21
0
 31
0
 70
   34
 71
    5
  3
Standard
 53
0
210
0
220
0
230
1
100
AcDb2LineAngularDimension
 13
-66.68395609140178
 23
-38.49999999999999
 33
0
 14
66.68395609140178
 24
38.49999999999999
 34
0
 15
-38.5
 25
-66.68395609140177
 35
0
 16
46.8960385435014
 26
31.16151158856482
 36
0
  0
DIMENSION
  5
CE
100
AcDbEntity
  8
0
  6
ByLayer
 62
  256
370
   -1
100
AcDbDimension
  2
*D3
 10
6.123031769111886e-15
 20
100
 30
0
 11
0
 21
0
 31
0
 70
   34
 71
    5
  3
Standard
 53
0
210
0
220
0
230
1
100
AcDb2LineAngularDimension
 13
-38.5
 23
-66.68395609140177
 33
0
 14
38.5
 24
66.68395609140177
 34
0
 15
-6.123031769111886e-15
 25
-100
 35
0
 16
18.03941916246219
 26
31.24519052841612
 36
0
  0
DIMENSION
  5
CF
100
AcDbEntity
  8
0
  6
ByLayer
 62
  256
370
   -1
100
AcDbDimension
  2
*D4
 10
-24.2535625036333
 20
6.063390625908313
 30
0
 11
0.4547542969431214
 21
1.819017187772488
 31
0
 70
   35
 71
    5
  3
Standard
 53
0
210
0
220
0
230
1
100
AcDbDiametricDimension
 15
24.25356250363329
 25
-6.063390625908331
 35
0
 40
0
  0
DIMENSION
  5
D0
100
AcDbEntity
  8
0
  6
ByLayer
 62
  256
370
   -1
100
AcDbDimension
  2
*D5
 10
-26.7256831493656
 20
-54.83372922025016
 30
0
 11
-1.68546298832736
 21
0.8214861623780374
 31
0
 70
   35
 71
    5
  3
Standard
 53
0
210
0
220
0
230
1
100
AcDbDiametricDimension
 15
26.72568314936561
 25
54.83372922025015
 35
0
 40
0
  0
DIMENSION
  5
D1
100
AcDbEntity
  8
0
  6
ByLayer
 62
  256
370
   -1
100
AcDbDimension
  2
*D6
 10
-73.04861394988957
 20
-24.34953798329651
 30
0
 11
-0.592927061281578
 21
1.778781183844721
 31
0
 70
   35
 71
    5
  3
Standard
 53
0
210
0
220
0
230
1
100
AcDbDiametricDimension
 15
73.04861394988956
 25
24.34953798329652
 35
0
 40
0
  0
DIMENSION
  5
D2
100
AcDbEntity
  8
0
  6
ByLayer
 62
  256
370
   -1
100
AcDbDimension
  2
*D7
 10
-24.76152574878841
 20
54.52977489717018
 30
0
 11
-31.04706006539448
 21
54.61742964471635
 31
0
 70
   35
 71
    5
  3
Standard
 53
0
210
0
220
0
230
1
100
AcDbDiametricDimension
 15
-36.26408208227488
 25
51.11053553804798
 35
0
 40
0
  0
DIMENSION
  5
D3
100
AcDbEntity
  8
0
  6
ByLayer
 62
  256
370
   -1
100
AcDbDimension
  2
*D8
 10
74.37628862425827
 20
19.92906647289409
 30
0
 11
0
 21
0
 31
0
 70
   34
 71
    5
  3
Standard
 53
0
210
0
220
0
230
1
100
AcDb2LineAngularDimension
 13
-100
 23
1.224606353822377e-14
 33
0
 14
100
 24
-1.224606353822377e-14
 34
0
 15
58.92147540363317
 25
15.78796175125376
 35
0
 16
70
 26
10
 36
0
  0
DIMENSION
  5
D4
100
AcDbEntity
  8
0
  6
ByLayer
 62
  256
370
   -1
100
AcDbDimension
  2
*D9
 10
74.37628862425827
 20
19.92906647289409
 30
0
 11
0
 21
0
 31
0
 70
   34
 71
    5
  3
Standard
 53
0
210
0
220
0
230
1
100
AcDb2LineAngularDimension
 13
58.92147540363317
 23
-15.78796175125378
 33
0
 14
74.37628862425827
 24
-19.92906647289411
 34
0
 15
58.92147540363317
 25
15.78796175125376
 35
0
 16
80
 26
-10
 36
0
  0
ENDSEC
  0
SECTION
  2
OBJECTS
  0
DICTIONARY
  5
C
330
0
100
AcDbDictionary
281
    1
  3
ACAD_GROUP
350
D
  0
DICTIONARY
  5
D
330
C
100
AcDbDictionary
281
    1
  0
PLOTSETTINGS
  5
D5
100
AcDbPlotSettings
  6
1x1
 40
0
 41
0
 42
0
 43
0
  0
ENDSEC
  0
EOF
